<svg xmlns="http://www.w3.org/2000/svg" width="75" height="87"><g fill-rule="nonzero" fill="none"><path fill="#57C1B8" d="M55 47c10 0 19 8 20 18 1 11-6 20-17 22-10 1-20-5-22-15a20 20 0 0119-25z"/><path fill="#ECEEF8" d="M55 20v27a20 20 0 00-19 25H8c-4 0-8-3-8-7V8c0-4 3-8 8-8h27v12c0 4 4 7 8 7h12v1z"/><path fill="#7D8ACF" d="M55 19H43c-4 0-8-3-8-7V0l20 19z"/><path fill="#FFF" d="M62 64l-6-6h-2l-6 6v2h1l5-4v13l1 1 1-1V62l5 4h1v-2z"/><path d="M30 43h-4a1 1 0 110-2h4a1 1 0 110 2zm14-10H12a1 1 0 110-2h32a1 1 0 110 2zM22 43H12a1 1 0 110-2h10a1 1 0 110 2z" fill="#7D8ACF"/></g></svg>